# xmcd
#
# Track frame offsets:
#	150
#	17207
#	37124
#	59422
#	75526
#	94745
#	113373
#	131502
#	154424
#	169009
#
# Disc length: 3254 seconds
# Revision: 0
# Processed by: cddbd v1.5.2PL0 Copyright (c) Steve Scherf et al.
# Submitted via: dBpowerAMP V12.0
#
DISCID=790cb40a
DTITLE=Tail Dragger - Stop Lyin': The Lost Session
DYEAR=2013
DGENRE=Blues
TTITLE0=So Ezee
TTITLE1=Where Did You Go
TTITLE2=Ain't Gonna Cry No Mo
TTITLE3=Don't You Want a Good Man
TTITLE4=My Head is Bald
TTITLE5=Alabama Bound
TTITLE6=Don't Trust Yo Woman
TTITLE7=Please Mr. Jailer
TTITLE8=Stop Lyin'
TTITLE9=Tail's Tale
EXTD=
EXTT0=
EXTT1=
EXTT2=
EXTT3=
EXTT4=
EXTT5=
EXTT6=
EXTT7=
EXTT8=
EXTT9=
PLAYORDER=
